# xmcd CD database file
# Copyright (C) 1993-1998 Ti Kan
#
# Track frame offsets:
#	150
#	14277
#	32087
#	46592
#	59475
#	76165
#	93472
#	108320
#	124855
#	136700
#	152127
#	171342
#	186027
#	201780
#	217030
#	232557
#	243815
#	258332
#	274185
#	290640
#
# Disc length: 4159 seconds
#
# Revision: 1
# Processed by: cddbd v1.4b41PL1 Copyright (c) Steve Scherf et al.
# Submitted via: NotifyCDPlayer(CDDB) 1.51.3
#
DISCID=0d103d14
DTITLE=Various Artist - ALL STAR COUNTRY DISC 1
DYEAR=1900
DGENRE=
TTITLE0=ON THE OTHER HAND
TTITLE1=MEET ME IN MONTANA
TTITLE2=I'LL NEVER BE LOVE AGAIN
TTITLE3=MAMA'S NEVER SEEN THOSE EYES
TTITLE4=I'LL NEVE STOP LOVING YOU
TTITLE5=TO KNOW HIM IS TO LOVE HIM
TTITLE6=DOES FORT WORTH EVER CROSS YOUR MIND
TTITLE7=A GIL LIKE EMMYLOU
TTITLE8=IF I COULD ONLY WIN YOUR LOVE
TTITLE9=AS LONG AS I'M ROCKIN' WITH YOU
TTITLE10=(THERE'S A) FIRE IN THE NIGHT
TTITLE11=MAMA'S HE'S CRAZY
TTITLE12=DADDY'S HANDS
TTITLE13=FISHIN' IN THE DARK
TTITLE14=I NEED MORE OF YOU
TTITLE15=MIND YOUR OWN BUSINESS
TTITLE16=NO ONE MENDS A BROKEN HEART LIKE YOU
TTITLE17=THE BED YOU MADE FOR ME
TTITLE18=GIVE ME WINGS
TTITLE19=HOW DO I TURN YOU ON
EXTD=
EXTT0=
EXTT1=
EXTT2=
EXTT3=
EXTT4=
EXTT5=
EXTT6=
EXTT7=
EXTT8=
EXTT9=
EXTT10=
EXTT11=
EXTT12=
EXTT13=
EXTT14=
EXTT15=
EXTT16=
EXTT17=
EXTT18=
EXTT19=
PLAYORDER=
